<?xml version="1.0" encoding="utf-8"?>
<!-- Generator: Adobe Illustrator 17.0.0, SVG Export Plug-In . SVG Version: 6.00 Build 0)  -->
<!DOCTYPE svg PUBLIC "-//W3C//DTD SVG 1.1//EN" "http://www.w3.org/Graphics/SVG/1.1/DTD/svg11.dtd">
<svg version="1.1" id="Laag_1" xmlns="http://www.w3.org/2000/svg" xmlns:xlink="http://www.w3.org/1999/xlink" x="0px" y="0px"
	 width="301px" height="234px" viewBox="0 0 301 234" enable-background="new 0 0 301 234" xml:space="preserve">
<g>
	<defs>
		<rect id="SVGID_1_" x="-226" y="-239" width="750" height="1334"/>
	</defs>
	<clipPath id="SVGID_2_">
		<use xlink:href="#SVGID_1_"  overflow="visible"/>
	</clipPath>
	<g clip-path="url(#SVGID_2_)">
		<defs>
			<path id="SVGID_3_" d="M41.709,90.243c-1.562-1.561-4.092-1.563-5.659,0.004L1.674,124.624c-1.564,1.564-1.565,4.099-0.005,5.659
				l100.553,100.552c1.561,1.562,4.091,1.563,5.658-0.004l34.377-34.377c1.564-1.564,1.565-4.098,0.004-5.658L41.709,90.243z"/>
		</defs>
		<clipPath id="SVGID_4_">
			<use xlink:href="#SVGID_3_"  overflow="visible"/>
		</clipPath>
		<linearGradient id="SVGID_5_" gradientUnits="userSpaceOnUse" x1="3.375" y1="86.125" x2="158.5057" y2="241.2557">
			<stop  offset="0" style="stop-color:#0DAFE6"/>
			<stop  offset="1" style="stop-color:#000000"/>
		</linearGradient>
		<rect y="89.5" clip-path="url(#SVGID_4_)" fill="url(#SVGID_5_)" width="160.5" height="147"/>
	</g>
</g>
<g>
	<defs>
		<rect id="SVGID_6_" x="-226" y="-239" width="750" height="1334"/>
	</defs>
	<clipPath id="SVGID_7_">
		<use xlink:href="#SVGID_6_"  overflow="visible"/>
	</clipPath>
	<g clip-path="url(#SVGID_7_)">
		<defs>
			<path id="SVGID_8_" d="M269.438,71.527c1.561-1.562,1.562-4.092-0.004-5.659l-34.377-34.376c-1.564-1.564-4.1-1.563-5.659-0.005
				L65.571,195.314l37.208,37.209c1.564,1.563,4.1,1.562,5.659,0.004L269.438,71.527z"/>
		</defs>
		<clipPath id="SVGID_9_">
			<use xlink:href="#SVGID_8_"  overflow="visible"/>
		</clipPath>
		<polygon clip-path="url(#SVGID_9_)" fill="#0DAFE6" points="60.571,-4.681 275.609,25.319 305.609,238.696 60.571,238.696 		"/>
	</g>
</g>
</svg>
